<svg width="256" height="256" viewBox="0 0 256 256" fill="none" xmlns="http://www.w3.org/2000/svg">
<g id="coding 1" clip-path="url(#clip0_2_2)">
<path id="Vector" d="M212.881 110.403C212.881 110.403 206.863 114.695 208.595 119.582C210.328 124.469 234.929 120.47 234.929 120.47C234.929 120.47 233.196 113.807 230.078 112.474C226.959 111.141 212.881 110.403 212.881 110.403Z" fill="#6C63FF"/>
<path id="Vector_2" d="M210.535 111.548C211.745 110.54 213.089 109.827 214.501 109.445C219.21 107.982 224.14 108.179 228.769 110.016L228.684 109.927C230.656 111.262 232.388 113.112 233.766 115.359L210.535 111.548Z" fill="#CCCCCC"/>
<path id="Vector_3" d="M237.188 132.563C237.105 134.157 237.022 135.751 236.939 137.342C236.825 140.677 236.541 143.998 236.09 147.285C235.667 150.034 234.995 152.762 233.792 155.103C232.59 157.44 230.806 159.372 228.692 160.083C227.394 160.482 226.045 160.52 224.735 160.194C222.264 158.395 220.591 160.696 223.058 163.037C223.618 163.568 224.199 164.058 224.801 164.508L225.92 186.662L205.13 180.887L209.188 151.416C208.566 150.692 207.998 149.896 207.49 149.039C205.165 145.081 204.364 139.924 204.517 134.975C204.673 130.021 205.702 125.193 206.724 120.417C206.985 119.121 207.299 117.845 207.666 116.592C208.12 116.832 208.581 117.05 209.049 117.232C212.039 118.396 215.217 118.489 218.342 118.485C223.903 118.48 229.458 118.202 235.005 117.649C236.28 120.34 237.054 123.371 237.268 126.508C237.357 128.526 237.331 130.549 237.188 132.563V132.563Z" fill="#CCCCCC"/>
<path id="Vector_4" d="M148.27 192.701L180.276 196.343L180.619 196.383V21.2922C180.505 21.1901 180.391 21.0879 180.276 20.9857C173.606 15.0039 166.39 10.0898 158.79 6.35258L157.154 35.2724L157.005 37.92L155.387 66.5999L154.888 75.4224L148.329 191.679L148.27 192.701Z" fill="#E6E6E6"/>
<path id="Vector_5" d="M69.1195 18.0316C68.8908 18.2181 68.6621 18.4047 68.4334 18.6002V196.383L69.1195 196.304L100.779 192.701L100.72 191.679L94.161 75.4224L93.662 66.5999L92.0439 37.92L91.8948 35.2724L90.1797 4.94435C82.7832 8.23141 75.7144 12.6241 69.1195 18.0316V18.0316Z" fill="#E6E6E6"/>
<path id="Vector_6" d="M68.4334 18.6002C67.9726 18.9822 67.5117 19.3732 67.0578 19.7685V198.809C67.0578 203.282 69.1264 207.032 71.8915 207.987C72.3433 208.144 72.8094 208.223 73.2775 208.222H176.118C176.585 208.223 177.05 208.144 177.501 207.987C178.529 207.621 179.46 206.906 180.197 205.917C181.601 203.992 182.369 201.444 182.338 198.809V22.8826C181.77 22.3451 181.198 21.812 180.619 21.2922C180.505 21.1901 180.391 21.0879 180.276 20.9857V198.809C180.277 199.385 180.223 199.96 180.117 200.519C179.628 203.163 178.017 205.099 176.118 205.099H73.2775C70.9837 205.099 69.1195 202.279 69.1195 198.809V18.0316C68.8908 18.2181 68.6621 18.4047 68.4334 18.6002Z" fill="#E6E6E6"/>
<path id="Vector_7" d="M181.307 35.2741H68.0878V37.9213H181.307V35.2741Z" fill="#E6E6E6"/>
<path id="Vector_8" d="M146.631 1.50596C145.945 1.28829 145.259 1.08394 144.566 0.892914V72.7748H146.631V1.50596Z" fill="#E6E6E6"/>
<path id="Vector_9" d="M104.83 0C104.14 0.164367 103.451 0.333172 102.765 0.515309V72.7747H104.83V0Z" fill="#E6E6E6"/>
<path id="Vector_10" d="M45.8903 203.589C45.8898 205.108 46.1168 206.613 46.559 208.022C46.7288 208.569 46.9316 209.098 47.1654 209.604C47.4673 210.264 47.8177 210.886 48.2118 211.461C49.0823 212.733 50.1545 213.752 51.3567 214.449C52.559 215.147 53.8636 215.508 55.1834 215.508H190.772C193.236 215.508 195.6 214.253 197.343 212.018C199.086 209.784 200.065 206.753 200.065 203.593C200.065 200.434 199.086 197.403 197.343 195.169C195.6 192.934 193.236 191.679 190.772 191.679H55.1834C52.72 191.682 50.3582 192.938 48.616 195.171C46.8739 197.403 45.8936 200.431 45.8903 203.589Z" fill="#E6E6E6"/>
<path id="Vector_11" d="M68.0879 75.4234L180.619 75.4234V66.5994L68.0879 66.5994V75.4234Z" fill="#E6E6E6"/>
<path id="Vector_12" d="M129.171 68.8054H119.535C119.535 68.1681 119.633 67.537 119.824 66.9482C120.014 66.3594 120.293 65.8244 120.644 65.3737C120.996 64.923 121.413 64.5655 121.872 64.3216C122.332 64.0777 122.824 63.9522 123.321 63.9522H125.386C126.39 63.9522 127.352 64.4635 128.062 65.3737C128.772 66.2838 129.171 67.5183 129.171 68.8054V68.8054H129.171Z" fill="#E6E6E6"/>
<path id="Vector_13" d="M0 210.395C3.01012 214.967 6.2659 219.265 9.74354 223.255H246.257C249.734 219.265 252.99 214.967 256 210.395H0Z" fill="#3F3D56"/>
<path id="Vector_14" d="M64.1577 167.388V212.949H89.0536V167.388C89.054 167.061 88.9724 166.741 88.8209 166.477C88.6693 166.214 88.4558 166.019 88.2116 165.922C88.0965 165.873 87.9759 165.849 87.8547 165.851H65.36C65.2023 165.851 65.0461 165.89 64.9003 165.967C64.7545 166.044 64.622 166.157 64.5104 166.3C64.3987 166.443 64.3101 166.613 64.2495 166.799C64.189 166.986 64.1578 167.186 64.1577 167.388ZM73.8735 183.043C73.88 182.145 74.1628 181.286 74.6605 180.654C75.1582 180.022 75.8305 179.667 76.5311 179.667C77.2317 179.667 77.904 180.022 78.4017 180.654C78.8994 181.286 79.1823 182.145 79.1888 183.043V188.329C79.1852 189.23 78.9036 190.092 78.4056 190.728C77.9076 191.363 77.2336 191.719 76.5311 191.719C75.8286 191.719 75.1547 191.363 74.6567 190.728C74.1586 190.092 73.8771 189.23 73.8735 188.329V183.043Z" fill="#2F2E41"/>
<path id="Vector_15" d="M64.0814 211.492V215.885C64.082 216.113 64.1525 216.331 64.2777 216.492C64.4029 216.654 64.5727 216.745 64.7502 216.747H88.4611C88.6387 216.746 88.8088 216.655 88.9342 216.493C89.0595 216.332 89.1298 216.113 89.1298 215.885V211.492H64.0814Z" fill="#3F3D56"/>
<path id="Vector_16" d="M24.9929 98.7448V181.933C24.9936 182.993 25.3223 184.009 25.907 184.759C26.4917 185.508 27.2845 185.93 28.1114 185.931H124.265C125.092 185.93 125.884 185.508 126.469 184.759C127.054 184.009 127.383 182.993 127.383 181.933V98.7448C127.381 97.6856 127.052 96.6706 126.467 95.9221C125.883 95.1735 125.091 94.7525 124.265 94.7511H28.1114C27.2853 94.7525 26.4932 95.1735 25.9087 95.9221C25.3242 96.6706 24.9949 97.6856 24.9929 98.7448V98.7448Z" fill="#3F3D56"/>
<path id="Vector_17" d="M27.2487 99.7799V180.906C27.2494 181.473 27.4253 182.016 27.7376 182.416C28.05 182.817 28.4735 183.042 28.9153 183.043H123.464C123.906 183.042 124.33 182.817 124.642 182.416C124.954 182.016 125.13 181.473 125.131 180.906V99.7799C125.131 99.2128 124.955 98.6689 124.643 98.2675C124.331 97.866 123.907 97.6399 123.464 97.6387H28.9153C28.473 97.6399 28.0491 97.8661 27.7367 98.2675C27.4242 98.6689 27.2487 99.2128 27.2487 99.7799V99.7799Z" fill="#6C63FF"/>
<path id="Vector_18" d="M46.5278 217.782C46.6241 217.937 46.7464 218.062 46.8856 218.147C47.0249 218.233 47.1774 218.276 47.3317 218.275H103.582C103.736 218.275 103.888 218.231 104.027 218.146C104.166 218.061 104.288 217.938 104.385 217.784C104.482 217.631 104.551 217.452 104.587 217.261C104.623 217.069 104.626 216.869 104.594 216.676L103.721 211.359C103.685 211.142 103.607 210.94 103.494 210.772C103.382 210.603 103.238 210.474 103.076 210.395C102.959 210.336 102.835 210.306 102.709 210.306H48.2014C48.0757 210.306 47.9511 210.336 47.8341 210.395C47.6725 210.474 47.5289 210.603 47.4163 210.772C47.3038 210.94 47.2258 211.142 47.1896 211.359L46.3165 216.676C46.2854 216.869 46.2882 217.069 46.3248 217.26C46.3614 217.451 46.4307 217.63 46.5278 217.782Z" fill="#2F2E41"/>
<path id="Vector_19" d="M100.746 212.596H102.14C102.234 212.596 102.31 212.499 102.31 212.379V211.48C102.31 211.361 102.234 211.264 102.14 211.264H100.746C100.653 211.264 100.577 211.361 100.577 211.48V212.379C100.577 212.499 100.653 212.596 100.746 212.596Z" fill="#3F3D56"/>
<path id="Vector_20" d="M97.2812 212.596H98.6754C98.7688 212.596 98.8446 212.499 98.8446 212.379V211.48C98.8446 211.361 98.7688 211.264 98.6754 211.264H97.2812C97.1878 211.264 97.1121 211.361 97.1121 211.48V212.379C97.1121 212.499 97.1878 212.596 97.2812 212.596Z" fill="#3F3D56"/>
<path id="Vector_21" d="M93.8162 212.596H95.2104C95.3038 212.596 95.3796 212.499 95.3796 212.379V211.48C95.3796 211.361 95.3038 211.264 95.2104 211.264H93.8162C93.7228 211.264 93.6471 211.361 93.6471 211.48V212.379C93.6471 212.499 93.7228 212.596 93.8162 212.596Z" fill="#3F3D56"/>
<path id="Vector_22" d="M90.3513 212.596H91.7455C91.8389 212.596 91.9146 212.499 91.9146 212.379V211.48C91.9146 211.361 91.8389 211.264 91.7455 211.264H90.3513C90.2579 211.264 90.1821 211.361 90.1821 211.48V212.379C90.1821 212.499 90.2579 212.596 90.3513 212.596Z" fill="#3F3D56"/>
<path id="Vector_23" d="M86.8863 212.596H88.2805C88.3739 212.596 88.4496 212.499 88.4496 212.379V211.48C88.4496 211.361 88.3739 211.264 88.2805 211.264H86.8863C86.7929 211.264 86.7171 211.361 86.7171 211.48V212.379C86.7171 212.499 86.7929 212.596 86.8863 212.596Z" fill="#3F3D56"/>
<path id="Vector_24" d="M83.4213 212.596H84.8155C84.9089 212.596 84.9846 212.499 84.9846 212.379V211.48C84.9846 211.361 84.9089 211.264 84.8155 211.264H83.4213C83.3279 211.264 83.2521 211.361 83.2521 211.48V212.379C83.2521 212.499 83.3279 212.596 83.4213 212.596Z" fill="#3F3D56"/>
<path id="Vector_25" d="M79.9563 212.596H81.3505C81.4439 212.596 81.5197 212.499 81.5197 212.379V211.48C81.5197 211.361 81.4439 211.264 81.3505 211.264H79.9563C79.8629 211.264 79.7872 211.361 79.7872 211.48V212.379C79.7872 212.499 79.8629 212.596 79.9563 212.596Z" fill="#3F3D56"/>
<path id="Vector_26" d="M76.4913 212.596H77.8855C77.9789 212.596 78.0547 212.499 78.0547 212.379V211.48C78.0547 211.361 77.9789 211.264 77.8855 211.264H76.4913C76.3979 211.264 76.3222 211.361 76.3222 211.48V212.379C76.3222 212.499 76.3979 212.596 76.4913 212.596Z" fill="#3F3D56"/>
<path id="Vector_27" d="M73.0263 212.596H74.4205C74.5139 212.596 74.5897 212.499 74.5897 212.379V211.48C74.5897 211.361 74.5139 211.264 74.4205 211.264H73.0263C72.9329 211.264 72.8572 211.361 72.8572 211.48V212.379C72.8572 212.499 72.9329 212.596 73.0263 212.596Z" fill="#3F3D56"/>
<path id="Vector_28" d="M69.5614 212.596H70.9555C71.049 212.596 71.1247 212.499 71.1247 212.379V211.48C71.1247 211.361 71.049 211.264 70.9555 211.264H69.5614C69.4679 211.264 69.3922 211.361 69.3922 211.48V212.379C69.3922 212.499 69.4679 212.596 69.5614 212.596Z" fill="#3F3D56"/>
<path id="Vector_29" d="M66.0964 212.596H67.4905C67.584 212.596 67.6597 212.499 67.6597 212.379V211.48C67.6597 211.361 67.584 211.264 67.4905 211.264H66.0964C66.003 211.264 65.9272 211.361 65.9272 211.48V212.379C65.9272 212.499 66.003 212.596 66.0964 212.596Z" fill="#3F3D56"/>
<path id="Vector_30" d="M62.6314 212.596H64.0256C64.119 212.596 64.1947 212.499 64.1947 212.379V211.48C64.1947 211.361 64.119 211.264 64.0256 211.264H62.6314C62.538 211.264 62.4622 211.361 62.4622 211.48V212.379C62.4622 212.499 62.538 212.596 62.6314 212.596Z" fill="#3F3D56"/>
<path id="Vector_31" d="M59.1664 212.596H60.5606C60.654 212.596 60.7297 212.499 60.7297 212.379V211.48C60.7297 211.361 60.654 211.264 60.5606 211.264H59.1664C59.073 211.264 58.9972 211.361 58.9972 211.48V212.379C58.9972 212.499 59.073 212.596 59.1664 212.596Z" fill="#3F3D56"/>
<path id="Vector_32" d="M55.7014 212.596H57.0956C57.189 212.596 57.2648 212.499 57.2648 212.379V211.48C57.2648 211.361 57.189 211.264 57.0956 211.264H55.7014C55.608 211.264 55.5323 211.361 55.5323 211.48V212.379C55.5323 212.499 55.608 212.596 55.7014 212.596Z" fill="#3F3D56"/>
<path id="Vector_33" d="M52.2364 212.596H53.6306C53.724 212.596 53.7998 212.499 53.7998 212.379V211.48C53.7998 211.361 53.724 211.264 53.6306 211.264H52.2364C52.143 211.264 52.0673 211.361 52.0673 211.48V212.379C52.0673 212.499 52.143 212.596 52.2364 212.596Z" fill="#3F3D56"/>
<path id="Vector_34" d="M48.7714 212.596H50.1656C50.259 212.596 50.3348 212.499 50.3348 212.379V211.48C50.3348 211.361 50.259 211.264 50.1656 211.264H48.7714C48.678 211.264 48.6023 211.361 48.6023 211.48V212.379C48.6023 212.499 48.678 212.596 48.7714 212.596Z" fill="#3F3D56"/>
<path id="Vector_35" d="M100.787 214.817H102.181C102.275 214.817 102.35 214.72 102.35 214.601V213.702C102.35 213.582 102.275 213.485 102.181 213.485H100.787C100.694 213.485 100.618 213.582 100.618 213.702V214.601C100.618 214.72 100.694 214.817 100.787 214.817Z" fill="#3F3D56"/>
<path id="Vector_36" d="M97.3222 214.817H98.7164C98.8098 214.817 98.8855 214.72 98.8855 214.601V213.702C98.8855 213.582 98.8098 213.485 98.7164 213.485H97.3222C97.2288 213.485 97.153 213.582 97.153 213.702V214.601C97.153 214.72 97.2288 214.817 97.3222 214.817Z" fill="#3F3D56"/>
<path id="Vector_37" d="M93.8572 214.817H95.2514C95.3448 214.817 95.4205 214.72 95.4205 214.601V213.702C95.4205 213.582 95.3448 213.485 95.2514 213.485H93.8572C93.7638 213.485 93.688 213.582 93.688 213.702V214.601C93.688 214.72 93.7638 214.817 93.8572 214.817Z" fill="#3F3D56"/>
<path id="Vector_38" d="M90.3922 214.817H91.7864C91.8798 214.817 91.9556 214.72 91.9556 214.601V213.702C91.9556 213.582 91.8798 213.485 91.7864 213.485H90.3922C90.2988 213.485 90.2231 213.582 90.2231 213.702V214.601C90.2231 214.72 90.2988 214.817 90.3922 214.817Z" fill="#3F3D56"/>
<path id="Vector_39" d="M86.9272 214.817H88.3214C88.4148 214.817 88.4906 214.72 88.4906 214.601V213.702C88.4906 213.582 88.4148 213.485 88.3214 213.485H86.9272C86.8338 213.485 86.7581 213.582 86.7581 213.702V214.601C86.7581 214.72 86.8338 214.817 86.9272 214.817Z" fill="#3F3D56"/>
<path id="Vector_40" d="M83.4623 214.817H84.8564C84.9499 214.817 85.0256 214.72 85.0256 214.601V213.702C85.0256 213.582 84.9499 213.485 84.8564 213.485H83.4623C83.3688 213.485 83.2931 213.582 83.2931 213.702V214.601C83.2931 214.72 83.3688 214.817 83.4623 214.817Z" fill="#3F3D56"/>
<path id="Vector_41" d="M79.9973 214.817H81.3914C81.4849 214.817 81.5606 214.72 81.5606 214.601V213.702C81.5606 213.582 81.4849 213.485 81.3914 213.485H79.9973C79.9038 213.485 79.8281 213.582 79.8281 213.702V214.601C79.8281 214.72 79.9038 214.817 79.9973 214.817Z" fill="#3F3D56"/>
<path id="Vector_42" d="M76.5323 214.817H77.9265C78.0199 214.817 78.0956 214.72 78.0956 214.601V213.702C78.0956 213.582 78.0199 213.485 77.9265 213.485H76.5323C76.4389 213.485 76.3631 213.582 76.3631 213.702V214.601C76.3631 214.72 76.4389 214.817 76.5323 214.817Z" fill="#3F3D56"/>
<path id="Vector_43" d="M73.0673 214.817H74.4615C74.5549 214.817 74.6306 214.72 74.6306 214.601V213.702C74.6306 213.582 74.5549 213.485 74.4615 213.485H73.0673C72.9738 213.485 72.8981 213.582 72.8981 213.702V214.601C72.8981 214.72 72.9738 214.817 73.0673 214.817Z" fill="#3F3D56"/>
<path id="Vector_44" d="M69.6023 214.817H70.9965C71.0899 214.817 71.1656 214.72 71.1656 214.601V213.702C71.1656 213.582 71.0899 213.485 70.9965 213.485H69.6023C69.5089 213.485 69.4331 213.582 69.4331 213.702V214.601C69.4331 214.72 69.5089 214.817 69.6023 214.817Z" fill="#3F3D56"/>
<path id="Vector_45" d="M66.1373 214.817H67.5315C67.6249 214.817 67.7007 214.72 67.7007 214.601V213.702C67.7007 213.582 67.6249 213.485 67.5315 213.485H66.1373C66.0439 213.485 65.9681 213.582 65.9681 213.702V214.601C65.9681 214.72 66.0439 214.817 66.1373 214.817Z" fill="#3F3D56"/>
<path id="Vector_46" d="M62.6723 214.817H64.0665C64.1599 214.817 64.2357 214.72 64.2357 214.601V213.702C64.2357 213.582 64.1599 213.485 64.0665 213.485H62.6723C62.5789 213.485 62.5032 213.582 62.5032 213.702V214.601C62.5032 214.72 62.5789 214.817 62.6723 214.817Z" fill="#3F3D56"/>
<path id="Vector_47" d="M59.2074 214.817H60.6015C60.695 214.817 60.7707 214.72 60.7707 214.601V213.702C60.7707 213.582 60.695 213.485 60.6015 213.485H59.2074C59.1139 213.485 59.0382 213.582 59.0382 213.702V214.601C59.0382 214.72 59.1139 214.817 59.2074 214.817Z" fill="#3F3D56"/>
<path id="Vector_48" d="M55.7424 214.817H57.1365C57.23 214.817 57.3057 214.72 57.3057 214.601V213.702C57.3057 213.582 57.23 213.485 57.1365 213.485H55.7424C55.6489 213.485 55.5732 213.582 55.5732 213.702V214.601C55.5732 214.72 55.6489 214.817 55.7424 214.817Z" fill="#3F3D56"/>
<path id="Vector_49" d="M52.2774 214.817H53.6716C53.765 214.817 53.8407 214.72 53.8407 214.601V213.702C53.8407 213.582 53.765 213.485 53.6716 213.485H52.2774C52.184 213.485 52.1082 213.582 52.1082 213.702V214.601C52.1082 214.72 52.184 214.817 52.2774 214.817Z" fill="#3F3D56"/>
<path id="Vector_50" d="M48.8124 214.817H50.2066C50.3 214.817 50.3757 214.72 50.3757 214.601V213.702C50.3757 213.582 50.3 213.485 50.2066 213.485H48.8124C48.719 213.485 48.6432 213.582 48.6432 213.702V214.601C48.6432 214.72 48.719 214.817 48.8124 214.817Z" fill="#3F3D56"/>
<path id="Vector_51" d="M72.0278 217.483H85.5494C85.6428 217.483 85.7186 217.386 85.7186 217.266V216.367C85.7186 216.247 85.6428 216.15 85.5494 216.15H72.0278C71.9344 216.15 71.8586 216.247 71.8586 216.367V217.266C71.8586 217.386 71.9344 217.483 72.0278 217.483Z" fill="#3F3D56"/>
<path id="Vector_52" d="M33.6664 108.814H122.136C122.228 108.812 122.315 108.763 122.379 108.679C122.444 108.594 122.48 108.481 122.48 108.363C122.48 108.245 122.444 108.132 122.379 108.048C122.315 107.963 122.228 107.915 122.136 107.912H33.6664C33.5745 107.915 33.4869 107.963 33.4226 108.048C33.3583 108.132 33.3223 108.245 33.3223 108.363C33.3223 108.481 33.3583 108.594 33.4226 108.679C33.4869 108.763 33.5745 108.812 33.6664 108.814V108.814Z" fill="#3F3D56"/>
<path id="Vector_53" d="M116.113 105.609C117.252 105.609 118.175 104.399 118.175 102.907C118.175 101.414 117.252 100.204 116.113 100.204C114.975 100.204 114.052 101.414 114.052 102.907C114.052 104.399 114.975 105.609 116.113 105.609Z" fill="#3F3D56"/>
<path id="Vector_54" d="M108.991 105.609C110.129 105.609 111.053 104.399 111.053 102.907C111.053 101.414 110.129 100.204 108.991 100.204C107.852 100.204 106.929 101.414 106.929 102.907C106.929 104.399 107.852 105.609 108.991 105.609Z" fill="#3F3D56"/>
<path id="Vector_55" d="M101.868 105.609C103.007 105.609 103.93 104.399 103.93 102.907C103.93 101.414 103.007 100.204 101.868 100.204C100.729 100.204 99.8063 101.414 99.8063 102.907C99.8063 104.399 100.729 105.609 101.868 105.609Z" fill="#3F3D56"/>
<path id="Vector_56" d="M37.5778 101.366C37.5775 101.43 37.5871 101.493 37.606 101.552C37.6248 101.611 37.6526 101.665 37.6876 101.71C37.7227 101.756 37.7644 101.792 37.8104 101.817C37.8563 101.841 37.9056 101.854 37.9554 101.854H43.0143C43.1143 101.851 43.2094 101.798 43.2793 101.707C43.3492 101.615 43.3884 101.492 43.3884 101.364C43.3884 101.235 43.3492 101.112 43.2793 101.02C43.2094 100.929 43.1143 100.876 43.0143 100.873H37.9554C37.8545 100.874 37.7581 100.927 37.6873 101.019C37.6165 101.112 37.5772 101.236 37.5778 101.366V101.366Z" fill="#3F3D56"/>
<path id="Vector_57" d="M37.5778 103.209C37.5775 103.273 37.5871 103.337 37.606 103.396C37.6248 103.455 37.6526 103.509 37.6876 103.554C37.7227 103.599 37.7644 103.636 37.8104 103.66C37.8563 103.685 37.9056 103.698 37.9554 103.698H43.0143C43.1144 103.695 43.2096 103.642 43.2796 103.551C43.3496 103.459 43.3888 103.336 43.3888 103.207C43.3888 103.079 43.3496 102.956 43.2796 102.864C43.2096 102.772 43.1144 102.719 43.0143 102.716H37.9554C37.8545 102.718 37.7581 102.771 37.6873 102.863C37.6165 102.955 37.5772 103.08 37.5778 103.209V103.209Z" fill="#3F3D56"/>
<path id="Vector_58" d="M37.5778 105.049C37.5772 105.178 37.6165 105.303 37.6873 105.395C37.7581 105.487 37.8545 105.54 37.9554 105.542H43.0143C43.1143 105.539 43.2094 105.486 43.2793 105.394C43.3492 105.302 43.3884 105.179 43.3884 105.051C43.3884 104.923 43.3492 104.799 43.2793 104.708C43.2094 104.616 43.1143 104.563 43.0143 104.56H37.9554C37.9056 104.56 37.8563 104.573 37.8104 104.598C37.7644 104.622 37.7227 104.659 37.6876 104.704C37.6526 104.749 37.6248 104.803 37.606 104.862C37.5871 104.921 37.5775 104.985 37.5778 105.049V105.049Z" fill="#3F3D56"/>
<path id="Vector_59" d="M39.1412 119.297H37.3234C36.7723 119.297 36.3255 119.869 36.3255 120.576C36.3255 121.283 36.7723 121.855 37.3234 121.855H39.1412C39.6923 121.855 40.1391 121.283 40.1391 120.576C40.1391 119.869 39.6923 119.297 39.1412 119.297Z" fill="#E6E6E6"/>
<path id="Vector_60" d="M59.9311 119.297H58.1133C57.5622 119.297 57.1154 119.869 57.1154 120.576C57.1154 121.283 57.5622 121.855 58.1133 121.855H59.9311C60.4822 121.855 60.929 121.283 60.929 120.576C60.929 119.869 60.4822 119.297 59.9311 119.297Z" fill="#E6E6E6"/>
<path id="Vector_61" d="M65.8216 119.297H64.0038C63.4527 119.297 63.0059 119.869 63.0059 120.576C63.0059 121.283 63.4527 121.855 64.0038 121.855H65.8216C66.3727 121.855 66.8195 121.283 66.8195 120.576C66.8195 119.869 66.3727 119.297 65.8216 119.297Z" fill="#E6E6E6"/>
<path id="Vector_62" d="M54.2762 119.083H42.9783C42.4272 119.083 41.9804 119.656 41.9804 120.363C41.9804 121.069 42.4272 121.642 42.9783 121.642H54.2762C54.8273 121.642 55.2741 121.069 55.2741 120.363C55.2741 119.656 54.8273 119.083 54.2762 119.083Z" fill="#E6E6E6"/>
<path id="Vector_63" d="M81.9961 119.083H70.6982C70.1471 119.083 69.7003 119.656 69.7003 120.363C69.7003 121.069 70.1471 121.642 70.6982 121.642H81.9961C82.5472 121.642 82.994 121.069 82.994 120.363C82.994 119.656 82.5472 119.083 81.9961 119.083Z" fill="#E6E6E6"/>
<path id="Vector_64" d="M44.6851 125.072H42.8673C42.3162 125.072 41.8694 125.645 41.8694 126.351C41.8694 127.058 42.3162 127.631 42.8673 127.631H44.6851C45.2363 127.631 45.683 127.058 45.683 126.351C45.683 125.645 45.2363 125.072 44.6851 125.072Z" fill="#E6E6E6"/>
<path id="Vector_65" d="M65.4751 125.072H63.6573C63.1062 125.072 62.6594 125.645 62.6594 126.351C62.6594 127.058 63.1062 127.631 63.6573 127.631H65.4751C66.0262 127.631 66.473 127.058 66.473 126.351C66.473 125.645 66.0262 125.072 65.4751 125.072Z" fill="#E6E6E6"/>
<path id="Vector_66" d="M71.3656 125.072H69.5478C68.9966 125.072 68.5499 125.645 68.5499 126.351C68.5499 127.058 68.9966 127.631 69.5478 127.631H71.3656C71.9167 127.631 72.3635 127.058 72.3635 126.351C72.3635 125.645 71.9167 125.072 71.3656 125.072Z" fill="#E6E6E6"/>
<path id="Vector_67" d="M59.8202 124.858H48.5223C47.9712 124.858 47.5244 125.431 47.5244 126.138C47.5244 126.844 47.9712 127.417 48.5223 127.417H59.8202C60.3713 127.417 60.8181 126.844 60.8181 126.138C60.8181 125.431 60.3713 124.858 59.8202 124.858Z" fill="#E6E6E6"/>
<path id="Vector_68" d="M87.54 124.858H76.2422C75.691 124.858 75.2443 125.431 75.2443 126.138C75.2443 126.844 75.691 127.417 76.2422 127.417H87.54C88.0912 127.417 88.5379 126.844 88.5379 126.138C88.5379 125.431 88.0912 124.858 87.54 124.858Z" fill="#E6E6E6"/>
<path id="Vector_69" d="M50.2291 130.847H48.4114C47.8602 130.847 47.4135 131.42 47.4135 132.126C47.4135 132.833 47.8602 133.406 48.4114 133.406H50.2291C50.7803 133.406 51.227 132.833 51.227 132.126C51.227 131.42 50.7803 130.847 50.2291 130.847Z" fill="#E6E6E6"/>
<path id="Vector_70" d="M71.0191 130.847H69.2013C68.6501 130.847 68.2034 131.42 68.2034 132.126C68.2034 132.833 68.6501 133.406 69.2013 133.406H71.0191C71.5702 133.406 72.017 132.833 72.017 132.126C72.017 131.42 71.5702 130.847 71.0191 130.847Z" fill="#E6E6E6"/>
<path id="Vector_71" d="M76.9095 130.847H75.0917C74.5406 130.847 74.0938 131.42 74.0938 132.126C74.0938 132.833 74.5406 133.406 75.0917 133.406H76.9095C77.4607 133.406 77.9074 132.833 77.9074 132.126C77.9074 131.42 77.4607 130.847 76.9095 130.847Z" fill="#E6E6E6"/>
<path id="Vector_72" d="M65.3641 130.633H54.0663C53.5151 130.633 53.0684 131.206 53.0684 131.913C53.0684 132.619 53.5151 133.192 54.0663 133.192H65.3641C65.9153 133.192 66.362 132.619 66.362 131.913C66.362 131.206 65.9153 130.633 65.3641 130.633Z" fill="#E6E6E6"/>
<path id="Vector_73" d="M93.084 130.633H81.7862C81.235 130.633 80.7883 131.206 80.7883 131.913C80.7883 132.619 81.235 133.192 81.7862 133.192H93.084C93.6351 133.192 94.0819 132.619 94.0819 131.913C94.0819 131.206 93.6351 130.633 93.084 130.633Z" fill="#E6E6E6"/>
<path id="Vector_74" d="M55.7731 136.622H53.9553C53.4042 136.622 52.9574 137.195 52.9574 137.901C52.9574 138.608 53.4042 139.181 53.9553 139.181H55.7731C56.3243 139.181 56.771 138.608 56.771 137.901C56.771 137.195 56.3243 136.622 55.7731 136.622Z" fill="#E6E6E6"/>
<path id="Vector_75" d="M76.563 136.622H74.7453C74.1941 136.622 73.7473 137.195 73.7473 137.901C73.7473 138.608 74.1941 139.181 74.7453 139.181H76.563C77.1142 139.181 77.5609 138.608 77.5609 137.901C77.5609 137.195 77.1142 136.622 76.563 136.622Z" fill="#E6E6E6"/>
<path id="Vector_76" d="M82.4535 136.622H80.6357C80.0846 136.622 79.6378 137.195 79.6378 137.901C79.6378 138.608 80.0846 139.181 80.6357 139.181H82.4535C83.0046 139.181 83.4514 138.608 83.4514 137.901C83.4514 137.195 83.0046 136.622 82.4535 136.622Z" fill="#E6E6E6"/>
<path id="Vector_77" d="M70.9081 136.409H59.6102C59.0591 136.409 58.6123 136.981 58.6123 137.688C58.6123 138.395 59.0591 138.967 59.6102 138.967H70.9081C71.4592 138.967 71.906 138.395 71.906 137.688C71.906 136.981 71.4592 136.409 70.9081 136.409Z" fill="#E6E6E6"/>
<path id="Vector_78" d="M59.9311 159.586H58.1133C57.5622 159.586 57.1154 160.159 57.1154 160.865C57.1154 161.572 57.5622 162.145 58.1133 162.145H59.9311C60.4822 162.145 60.929 161.572 60.929 160.865C60.929 160.159 60.4822 159.586 59.9311 159.586Z" fill="#E6E6E6"/>
<path id="Vector_79" d="M65.8216 159.586H64.0038C63.4527 159.586 63.0059 160.159 63.0059 160.865C63.0059 161.572 63.4527 162.145 64.0038 162.145H65.8216C66.3727 162.145 66.8195 161.572 66.8195 160.865C66.8195 160.159 66.3727 159.586 65.8216 159.586Z" fill="#E6E6E6"/>
<path id="Vector_80" d="M81.9961 159.799H70.6982C70.1471 159.799 69.7003 160.372 69.7003 161.079C69.7003 161.785 70.1471 162.358 70.6982 162.358H81.9961C82.5472 162.358 82.994 161.785 82.994 161.079C82.994 160.372 82.5472 159.799 81.9961 159.799Z" fill="#E6E6E6"/>
<path id="Vector_81" d="M39.1412 159.586H37.3234C36.7723 159.586 36.3255 160.159 36.3255 160.865C36.3255 161.572 36.7723 162.145 37.3234 162.145H39.1412C39.6923 162.145 40.1391 161.572 40.1391 160.865C40.1391 160.159 39.6923 159.586 39.1412 159.586Z" fill="#E6E6E6"/>
<path id="Vector_82" d="M54.2762 159.799H42.9783C42.4272 159.799 41.9804 160.372 41.9804 161.079C41.9804 161.785 42.4272 162.358 42.9783 162.358H54.2762C54.8273 162.358 55.2741 161.785 55.2741 161.079C55.2741 160.372 54.8273 159.799 54.2762 159.799Z" fill="#E6E6E6"/>
<path id="Vector_83" d="M44.6851 153.811H42.8673C42.3162 153.811 41.8694 154.384 41.8694 155.09C41.8694 155.797 42.3162 156.37 42.8673 156.37H44.6851C45.2363 156.37 45.683 155.797 45.683 155.09C45.683 154.384 45.2363 153.811 44.6851 153.811Z" fill="#E6E6E6"/>
<path id="Vector_84" d="M65.4751 153.811H63.6573C63.1062 153.811 62.6594 154.384 62.6594 155.09C62.6594 155.797 63.1062 156.37 63.6573 156.37H65.4751C66.0262 156.37 66.473 155.797 66.473 155.09C66.473 154.384 66.0262 153.811 65.4751 153.811Z" fill="#E6E6E6"/>
<path id="Vector_85" d="M71.3656 153.811H69.5478C68.9966 153.811 68.5499 154.384 68.5499 155.09C68.5499 155.797 68.9966 156.37 69.5478 156.37H71.3656C71.9167 156.37 72.3635 155.797 72.3635 155.09C72.3635 154.384 71.9167 153.811 71.3656 153.811Z" fill="#E6E6E6"/>
<path id="Vector_86" d="M59.8202 154.024H48.5223C47.9712 154.024 47.5244 154.597 47.5244 155.304C47.5244 156.01 47.9712 156.583 48.5223 156.583H59.8202C60.3713 156.583 60.8181 156.01 60.8181 155.304C60.8181 154.597 60.3713 154.024 59.8202 154.024Z" fill="#E6E6E6"/>
<path id="Vector_87" d="M50.2291 148.036H48.4114C47.8602 148.036 47.4135 148.609 47.4135 149.315C47.4135 150.022 47.8602 150.595 48.4114 150.595H50.2291C50.7803 150.595 51.227 150.022 51.227 149.315C51.227 148.609 50.7803 148.036 50.2291 148.036Z" fill="#E6E6E6"/>
<path id="Vector_88" d="M71.0191 148.036H69.2013C68.6501 148.036 68.2034 148.609 68.2034 149.315C68.2034 150.022 68.6501 150.595 69.2013 150.595H71.0191C71.5702 150.595 72.017 150.022 72.017 149.315C72.017 148.609 71.5702 148.036 71.0191 148.036Z" fill="#E6E6E6"/>
<path id="Vector_89" d="M76.9095 148.036H75.0917C74.5406 148.036 74.0938 148.609 74.0938 149.315C74.0938 150.022 74.5406 150.595 75.0917 150.595H76.9095C77.4607 150.595 77.9074 150.022 77.9074 149.315C77.9074 148.609 77.4607 148.036 76.9095 148.036Z" fill="#E6E6E6"/>
<path id="Vector_90" d="M65.3641 148.249H54.0663C53.5151 148.249 53.0684 148.822 53.0684 149.529C53.0684 150.235 53.5151 150.808 54.0663 150.808H65.3641C65.9153 150.808 66.362 150.235 66.362 149.529C66.362 148.822 65.9153 148.249 65.3641 148.249Z" fill="#E6E6E6"/>
<path id="Vector_91" d="M55.7731 142.261H53.9553C53.4042 142.261 52.9574 142.834 52.9574 143.54C52.9574 144.247 53.4042 144.82 53.9553 144.82H55.7731C56.3243 144.82 56.771 144.247 56.771 143.54C56.771 142.834 56.3243 142.261 55.7731 142.261Z" fill="#E6E6E6"/>
<path id="Vector_92" d="M76.563 142.261H74.7453C74.1941 142.261 73.7473 142.834 73.7473 143.54C73.7473 144.247 74.1941 144.82 74.7453 144.82H76.563C77.1142 144.82 77.5609 144.247 77.5609 143.54C77.5609 142.834 77.1142 142.261 76.563 142.261Z" fill="#E6E6E6"/>
<path id="Vector_93" d="M82.4535 142.261H80.6357C80.0846 142.261 79.6378 142.834 79.6378 143.54C79.6378 144.247 80.0846 144.82 80.6357 144.82H82.4535C83.0046 144.82 83.4514 144.247 83.4514 143.54C83.4514 142.834 83.0046 142.261 82.4535 142.261Z" fill="#E6E6E6"/>
<path id="Vector_94" d="M70.9081 142.474H59.6102C59.0591 142.474 58.6123 143.047 58.6123 143.753C58.6123 144.46 59.0591 145.033 59.6102 145.033H70.9081C71.4592 145.033 71.906 144.46 71.906 143.753C71.906 143.047 71.4592 142.474 70.9081 142.474Z" fill="#E6E6E6"/>
<path id="Vector_95" d="M32.6055 243.015C32.8168 243.153 33.0317 243.29 33.243 243.424C38.7177 246.933 43.0974 248.928 49.0884 251.113C49.5943 243.872 50.0829 231.145 50.5576 223.255C50.6823 221.207 50.807 219.488 50.9283 218.275C50.9589 217.631 51.0616 216.995 51.2332 216.387L51.2124 218.275L51.1605 223.255L50.859 251.735C58.3113 254.263 65.9667 255.678 73.6725 255.951C74.0744 255.964 74.4694 255.973 74.8506 255.982C74.9857 255.987 75.1174 255.991 75.249 255.991C75.6822 255.996 76.1118 256 76.5449 256C84.6654 256.008 92.7566 254.75 100.64 252.255C100.471 245.09 100.301 232.504 100.138 223.255C100.103 221.447 100.072 219.764 100.038 218.275C99.9717 215.095 99.9024 212.802 99.8366 212.034C99.8949 212.17 99.9403 212.315 99.9717 212.465C100.293 214.38 100.511 216.322 100.627 218.275C100.748 219.764 100.869 221.447 100.99 223.255C101.635 232.864 102.307 245.929 103 251.469C107.125 250.025 111.172 248.24 115.117 246.125C117.196 245.014 119.238 243.816 121.243 242.531C120.862 239.332 120.464 235.747 120.055 232.029C119.736 229.146 119.407 226.183 119.071 223.255C118.551 218.733 110.827 187.13 110.339 185.931C109.92 184.904 109.521 183.936 109.144 183.043C108.229 180.875 107.453 179.147 106.877 178.054C104.473 173.378 100.893 169.896 96.732 168.188L96.628 168.152L96.5553 168.192L89.4694 165.402L88.4333 164.994L87.7369 164.718L85.2837 162.324L83.9496 161.022L82.6988 159.801L80.2525 157.415L65.107 158.61L62.1583 167.712L55.5541 170.809L55.4397 170.742L55.3393 170.689L55.2353 170.724C51.0751 172.434 47.4956 175.916 45.0898 180.591C44.7642 181.217 44.3691 182.044 43.9221 183.043C43.541 183.892 43.1252 184.86 42.6747 185.931C42.0337 187.454 41.3338 189.174 40.5923 191.035C40.4294 191.444 40.2631 191.861 40.0968 192.283C39.7884 193.065 39.4754 193.863 39.1578 194.678C38.4197 196.566 37.6575 198.538 36.8952 200.542C36.2333 202.278 35.5646 205.85 34.9063 210.395C34.3623 214.171 33.8217 218.622 33.2985 223.255C32.6124 229.261 33.3435 236.454 32.7233 241.98C32.6852 242.331 32.6436 242.673 32.6055 243.015Z" fill="#3F3D56"/>
<path id="Vector_96" opacity="0.2" d="M105.193 210.375L102.249 195.808L99.6495 208.378L105.193 210.375Z" fill="black"/>
<path id="Vector_97" d="M26.8467 200.884C27.9 219.488 26.8086 227.68 32.6228 243.019C37.9129 246.339 43.4233 249.048 49.0884 251.113C49.6775 251.327 50.2677 251.534 50.859 251.735C58.3113 254.263 65.9667 255.678 73.6725 255.951C74.0744 255.964 74.4694 255.973 74.8506 255.982C74.9857 255.987 75.1174 255.991 75.2491 255.991C75.6822 255.996 76.1118 256 76.545 256C84.6655 256.008 92.7566 254.75 100.64 252.255C101.43 252.006 102.217 251.744 103 251.469C107.125 250.025 111.172 248.24 115.117 246.125C117.196 245.014 119.238 243.816 121.243 242.531C121.697 242.238 122.151 241.944 122.598 241.642C124.895 236.462 126.202 230.163 126.229 222.593C124.639 209.551 30.3602 189.636 26.8467 200.884Z" fill="#2F2E41"/>
<path id="Vector_98" opacity="0.2" d="M26.8494 204.07C26.7956 202.918 26.7355 201.728 26.6653 200.489C30.1788 189.241 124.458 209.156 126.048 222.199C126.044 223.395 126.004 224.555 125.937 225.688C122.085 212.815 32.5191 193.887 26.8494 204.07Z" fill="black"/>
<path id="Vector_99" d="M5.48485 210.206C5.6375 210.776 5.92709 211.269 6.31201 211.615C6.69693 211.961 7.1574 212.141 7.62729 212.13L16.8067 211.827C17.28 211.816 17.7376 211.608 18.1112 211.235C18.4847 210.862 18.7541 210.344 18.879 209.759L20.178 191.95C20.6389 192.218 21.1406 192.35 21.6464 192.337C22.5336 192.308 23.3754 191.828 23.9868 191.003C24.5981 190.179 24.929 189.076 24.9068 187.939C24.8845 186.802 24.5109 185.722 23.868 184.938C23.2251 184.153 22.3656 183.728 21.4784 183.756C21.2762 183.755 21.0746 183.782 20.8768 183.836C20.6618 183.538 20.4004 183.301 20.1096 183.14C19.8187 182.979 19.5048 182.898 19.188 182.902L5.06798 183.37C4.95085 183.375 4.83432 183.394 4.71969 183.425C4.41003 183.499 4.11634 183.657 3.85837 183.889C3.6004 184.121 3.38415 184.421 3.22416 184.768C3.06418 185.116 2.96417 185.504 2.93087 185.906C2.89758 186.307 2.93176 186.713 3.03113 187.096L5.48485 210.206ZM20.4444 190.741L21.3687 186.498C21.4739 186.007 21.4763 185.49 21.3758 184.998C21.4206 184.998 21.4602 184.971 21.505 184.971C22.1388 184.954 22.7519 185.26 23.21 185.822C23.668 186.384 23.9335 187.156 23.9484 187.968C23.9632 188.781 23.7261 189.568 23.2891 190.156C22.8521 190.745 22.2509 191.088 21.6172 191.109C21.2074 191.125 20.802 190.998 20.4444 190.741V190.741Z" fill="#2F2E41"/>
<path id="Vector_100" d="M4.71967 183.425C5.02049 185.63 8.40263 187.18 12.4694 186.911C16.2091 186.69 19.2668 185.007 19.827 183.011C19.6197 182.933 19.4041 182.896 19.188 182.902L5.06796 183.369C4.95083 183.375 4.8343 183.394 4.71967 183.425V183.425Z" fill="#3F3D56"/>
<path id="Vector_101" d="M13.2148 200.42C13.2333 200.414 13.251 200.404 13.267 200.391L15.2605 198.718C15.2846 198.698 15.3044 198.67 15.3181 198.638C15.3318 198.606 15.339 198.569 15.339 198.532C15.339 198.496 15.3319 198.459 15.3182 198.427C15.3045 198.394 15.2847 198.367 15.2606 198.347L13.1886 196.607C13.1696 196.591 13.1483 196.579 13.1259 196.574C13.1035 196.568 13.0805 196.569 13.0582 196.574C13.0358 196.58 13.0146 196.592 12.9958 196.608C12.9769 196.625 12.9608 196.646 12.9483 196.67C12.9358 196.695 12.9271 196.722 12.9229 196.751C12.9187 196.779 12.9189 196.809 12.9236 196.838C12.9283 196.866 12.9374 196.893 12.9503 196.917C12.9632 196.942 12.9796 196.962 12.9988 196.978L14.8494 198.532L13.0774 200.019C13.0431 200.048 13.0178 200.092 13.0062 200.142C12.9945 200.192 12.9971 200.246 13.0136 200.294C13.0301 200.343 13.0593 200.382 13.0962 200.405C13.133 200.428 13.175 200.433 13.2147 200.42H13.2148Z" fill="#6C63FF"/>
<path id="Vector_102" d="M10.0662 200.607C10.0997 200.596 10.1298 200.572 10.1528 200.539C10.1758 200.506 10.1906 200.465 10.1953 200.422C10.2 200.378 10.1944 200.333 10.1792 200.293C10.164 200.254 10.1398 200.221 10.1099 200.199L8.2724 198.848L10.0484 197.157C10.0667 197.139 10.0821 197.118 10.0937 197.093C10.1054 197.068 10.1131 197.04 10.1164 197.011C10.1197 196.982 10.1186 196.953 10.1131 196.924C10.1075 196.896 10.0977 196.87 10.0841 196.846C10.0705 196.823 10.0535 196.803 10.034 196.788C10.0145 196.773 9.99289 196.763 9.97039 196.759C9.9479 196.755 9.92498 196.756 9.90293 196.763C9.88088 196.77 9.86014 196.783 9.8419 196.8L7.85347 198.694C7.83036 198.716 7.81189 198.745 7.79971 198.778C7.78754 198.812 7.78206 198.849 7.78375 198.885C7.78544 198.922 7.79426 198.958 7.80941 198.989C7.82455 199.021 7.84555 199.047 7.87051 199.065L9.93747 200.584C9.97646 200.613 10.0226 200.621 10.0662 200.607Z" fill="#6C63FF"/>
<path id="Vector_103" d="M13.0165 201.886C13.0332 201.881 13.0492 201.872 13.0639 201.861C13.0834 201.846 13.1003 201.826 13.1138 201.802C13.1272 201.779 13.1369 201.752 13.1423 201.724C13.1477 201.695 13.1487 201.666 13.1452 201.637C13.1417 201.608 13.1338 201.58 13.122 201.556L10.2961 195.599C10.2721 195.549 10.2336 195.513 10.189 195.499C10.1445 195.486 10.0975 195.495 10.0583 195.526C10.0192 195.556 9.99106 195.606 9.98015 195.663C9.96923 195.72 9.97639 195.78 10.0001 195.83L12.8259 201.787C12.8452 201.827 12.8741 201.859 12.9084 201.877C12.9427 201.895 12.9806 201.898 13.0165 201.886V201.886Z" fill="#6C63FF"/>
<path id="Vector_104" d="M232.503 176.888H201.665V211.539H232.503V176.888Z" fill="black"/>
<path id="Vector_105" d="M237.074 128.489C236.503 132.833 237.005 137.297 238.51 141.257C239.068 142.714 239.758 144.469 239.079 145.838C238.889 146.18 238.641 146.463 238.354 146.667C238.068 146.871 237.749 146.99 237.421 147.016C236.767 147.06 236.111 146.951 235.487 146.694" fill="#CCCCCC"/>
<path id="Vector_106" d="M209.981 115.14C210.555 115.14 211.021 114.642 211.021 114.029C211.021 113.416 210.555 112.918 209.981 112.918C209.407 112.918 208.942 113.416 208.942 114.029C208.942 114.642 209.407 115.14 209.981 115.14Z" fill="#3F3D56"/>
<path id="Vector_107" d="M213.793 115.584C214.367 115.584 214.832 115.087 214.832 114.473C214.832 113.86 214.367 113.363 213.793 113.363C213.218 113.363 212.753 113.86 212.753 114.473C212.753 115.087 213.218 115.584 213.793 115.584Z" fill="#3F3D56"/>
<path id="Vector_108" d="M217.604 117.805C218.178 117.805 218.644 117.308 218.644 116.694C218.644 116.081 218.178 115.584 217.604 115.584C217.03 115.584 216.565 116.081 216.565 116.694C216.565 117.308 217.03 117.805 217.604 117.805Z" fill="#3F3D56"/>
<path id="Vector_109" d="M222.108 116.472C222.683 116.472 223.148 115.975 223.148 115.362C223.148 114.748 222.683 114.251 222.108 114.251C221.534 114.251 221.069 114.748 221.069 115.362C221.069 115.975 221.534 116.472 222.108 116.472Z" fill="#3F3D56"/>
<g id="wire">
<path id="Vector_110" d="M125.38 143.884C130.429 142.087 136.052 144.013 139.954 148.424C142.059 150.82 143.603 153.919 144.416 157.375C145.412 161.488 145.577 165.826 145.681 170.102C145.797 174.829 145.897 179.557 146.004 184.285C146.107 188.793 146.119 193.321 146.353 197.822C146.55 201.598 147.021 205.518 148.598 208.794C150.059 211.83 152.368 213.88 154.977 215.01C157.622 216.156 160.473 216.423 163.248 216.399C166.476 216.386 169.7 216.059 172.89 215.42C178.949 214.176 184.934 211.002 188.635 204.453C190.339 201.479 191.296 197.911 191.38 194.223C191.458 189.925 190.387 185.762 189.214 181.792C188.072 177.929 186.837 174.123 186.114 170.084C185.443 166.304 185.124 162.436 185.162 158.559C185.224 150.804 186.673 143.171 189.399 136.248C190.779 132.692 192.529 129.393 194.601 126.441C196.739 123.46 199.385 120.998 202.533 120.191C204.069 119.783 205.659 119.865 207.165 120.43C207.807 120.677 208.081 119.391 207.441 119.145C204.323 117.948 200.936 118.858 198.172 120.935C195.454 122.978 193.306 126.042 191.483 129.291C187.98 135.661 185.649 142.965 184.663 150.656C183.677 158.346 184.062 166.223 185.79 173.695C187.64 181.464 191.664 189.552 189.935 197.96C188.422 205.319 183.181 210.321 177.767 212.58C174.483 213.951 171.039 214.53 167.604 214.83C164.701 215.084 161.759 215.245 158.864 214.767C156.206 214.327 153.471 213.286 151.41 210.998C149.151 208.49 148.118 204.886 147.668 201.187C147.16 197.003 147.235 192.688 147.139 188.466L146.811 174.053C146.626 165.913 146.786 156.892 142.655 150.147C141.003 147.519 138.906 145.408 136.523 143.976C134.139 142.543 131.532 141.826 128.9 141.88C127.616 141.918 126.341 142.159 125.104 142.599C124.975 142.651 124.867 142.764 124.803 142.916C124.738 143.068 124.722 143.246 124.758 143.413C124.794 143.579 124.879 143.721 124.995 143.809C125.111 143.897 125.249 143.924 125.38 143.884H125.38Z" fill="#CC00FF"/>
</g>
<path id="Vector_111" d="M53.6956 129.091C54.4315 135.803 57.2157 141.866 61.4366 145.949C65.6574 150.031 70.9697 151.797 76.206 150.861C81.4424 149.924 86.1746 146.361 89.3629 140.953C92.5511 135.546 93.9346 128.737 93.2093 122.023L93.1698 121.66C92.3261 115.036 89.4852 109.103 85.26 105.141C81.0349 101.178 75.7641 99.5036 70.5847 100.479C65.4053 101.454 60.7323 105 57.5739 110.352C54.4155 115.705 53.0248 122.434 53.7017 129.089L53.6956 129.091Z" fill="#FFB6B6"/>
<path id="Vector_112" d="M71.281 150.238C70.2496 147.574 69.1898 144.715 69.47 141.763C69.7502 138.811 71.9998 135.981 74.2184 136.848C75.545 137.367 76.5511 139.041 77.9366 139.12C79.8431 139.23 80.9286 136.429 81.5158 134.101L83.9075 124.62C88.5205 129.266 82.6783 124.395 88.3926 122.694C90.6344 122.027 92.8976 120.735 94.2073 118.309C95.517 115.883 95.4993 112.128 93.6894 110.305C92.802 109.412 91.6231 109.076 90.7748 108.122C90.2485 107.53 89.8849 106.737 89.7376 105.859C89.5904 104.982 89.6674 104.067 89.9572 103.25C90.247 102.433 90.7343 101.757 91.3469 101.323C91.9595 100.889 92.6648 100.719 93.3586 100.838L87.2719 99.8895L89.0737 95.6783C87.771 97.0041 85.9535 97.1894 84.3156 96.8185C82.6777 96.4477 81.1338 95.5902 79.531 95.0209C71.8362 92.2875 62.9143 97.1358 59.0954 106.126C57.5965 105.491 55.9827 105.456 54.4676 106.024C52.9526 106.592 51.6079 107.736 50.6117 109.306C48.9899 111.963 48.5563 115.502 48.502 118.875C48.4009 125.527 49.5492 132.112 51.85 138.075C52.5671 139.928 53.4147 141.746 54.6336 143.101C55.8524 144.457 69.627 151.966 71.2168 151.612" fill="#2F2E41"/>
<path id="Vector_113" d="M215.179 132.687C215.181 133.84 215.066 134.989 214.835 136.103V136.108C214.832 136.13 214.825 136.152 214.822 136.174C214.122 139.475 212.452 141.794 210.501 141.794C208.56 141.794 206.897 139.493 206.187 136.219C206.138 135.992 206.097 135.765 206.059 135.53C206.01 135.268 205.972 134.997 205.941 134.717C205.913 134.495 205.892 134.268 205.875 134.037C205.851 133.718 205.833 133.398 205.83 133.065V133.06C205.823 132.936 205.823 132.811 205.823 132.687V132.576L205.827 132.571C205.827 132.008 205.856 131.446 205.913 130.888C205.937 130.652 205.965 130.426 206 130.199C206.041 129.924 206.086 129.653 206.142 129.386C206.187 129.151 206.239 128.924 206.294 128.698C206.371 128.396 206.454 128.102 206.547 127.823C206.606 127.64 206.669 127.463 206.731 127.289C207.583 125.042 208.955 123.58 210.501 123.58C212.639 123.58 214.44 126.374 214.998 130.186C215.005 130.244 215.016 130.301 215.019 130.359V130.364C215.126 131.13 215.179 131.908 215.179 132.687Z" fill="#E6E6E6"/>
<path id="Vector_114" d="M206.776 127.485C206.774 127.566 206.75 127.644 206.709 127.706C206.667 127.767 206.61 127.809 206.547 127.823C206.606 127.64 206.669 127.463 206.731 127.289C206.76 127.348 206.775 127.416 206.776 127.485Z" fill="#6C63FF"/>
<path id="Vector_115" d="M210.873 127.08H207.823C207.675 127.08 207.554 127.235 207.554 127.426C207.554 127.616 207.675 127.771 207.823 127.771H210.873C211.021 127.771 211.142 127.616 211.142 127.426C211.142 127.235 211.021 127.08 210.873 127.08Z" fill="#6C63FF"/>
<path id="Vector_116" d="M206.682 129.04C206.682 129.132 206.654 129.22 206.603 129.285C206.552 129.35 206.484 129.386 206.412 129.386H206.142C206.187 129.151 206.239 128.924 206.294 128.698H206.412C206.483 128.698 206.551 128.733 206.602 128.797C206.653 128.862 206.682 128.949 206.682 129.04V129.04Z" fill="#6C63FF"/>
<path id="Vector_117" d="M208.004 128.697H207.513C207.364 128.697 207.244 128.851 207.244 129.042C207.244 129.232 207.364 129.387 207.513 129.387H208.004C208.152 129.387 208.273 129.232 208.273 129.042C208.273 128.851 208.152 128.697 208.004 128.697Z" fill="#6C63FF"/>
<path id="Vector_118" d="M212.369 128.639H209.32C209.171 128.639 209.05 128.794 209.05 128.984C209.05 129.175 209.171 129.33 209.32 129.33H212.369C212.518 129.33 212.638 129.175 212.638 128.984C212.638 128.794 212.518 128.639 212.369 128.639Z" fill="#6C63FF"/>
<path id="Vector_119" d="M207.91 130.255H207.419C207.271 130.255 207.15 130.41 207.15 130.6C207.15 130.791 207.271 130.946 207.419 130.946H207.91C208.059 130.946 208.179 130.791 208.179 130.6C208.179 130.41 208.059 130.255 207.91 130.255Z" fill="#6C63FF"/>
<path id="Vector_120" d="M209.5 130.255H209.009C208.86 130.255 208.74 130.41 208.74 130.6C208.74 130.791 208.86 130.946 209.009 130.946H209.5C209.649 130.946 209.769 130.791 209.769 130.6C209.769 130.41 209.649 130.255 209.5 130.255Z" fill="#6C63FF"/>
<path id="Vector_121" d="M206.655 130.541C206.655 130.633 206.626 130.721 206.575 130.786C206.525 130.851 206.456 130.888 206.384 130.888H205.913C205.937 130.652 205.965 130.426 206 130.199H206.384C206.42 130.199 206.455 130.207 206.487 130.224C206.52 130.241 206.55 130.266 206.575 130.298C206.6 130.33 206.62 130.368 206.634 130.409C206.647 130.451 206.655 130.496 206.655 130.541V130.541Z" fill="#6C63FF"/>
<path id="Vector_122" d="M213.865 130.198H210.816C210.667 130.198 210.547 130.352 210.547 130.543C210.547 130.734 210.667 130.888 210.816 130.888H213.865C214.014 130.888 214.134 130.734 214.134 130.543C214.134 130.352 214.014 130.198 213.865 130.198Z" fill="#6C63FF"/>
<path id="Vector_123" d="M206.776 132.816C206.776 132.861 206.769 132.906 206.755 132.947C206.741 132.989 206.721 133.027 206.696 133.059C206.671 133.091 206.641 133.116 206.609 133.133C206.576 133.15 206.541 133.158 206.506 133.158H206.017C205.948 133.158 205.881 133.125 205.83 133.065V133.06C205.823 132.936 205.823 132.811 205.823 132.687V132.576L205.827 132.571C205.851 132.539 205.881 132.513 205.914 132.496C205.947 132.478 205.982 132.469 206.017 132.469H206.506C206.577 132.469 206.646 132.506 206.697 132.571C206.747 132.636 206.776 132.724 206.776 132.816V132.816Z" fill="#CCCCCC"/>
<path id="Vector_124" d="M210.873 132.411H207.823C207.675 132.411 207.554 132.566 207.554 132.756C207.554 132.947 207.675 133.102 207.823 133.102H210.873C211.021 133.102 211.142 132.947 211.142 132.756C211.142 132.566 211.021 132.411 210.873 132.411Z" fill="#CCCCCC"/>
<path id="Vector_125" d="M206.682 134.371C206.682 134.462 206.654 134.551 206.603 134.615C206.552 134.68 206.484 134.717 206.412 134.717H205.941C205.913 134.495 205.892 134.268 205.875 134.037C205.891 134.03 205.907 134.027 205.924 134.028H206.412C206.483 134.028 206.551 134.064 206.602 134.128C206.653 134.192 206.682 134.279 206.682 134.371V134.371Z" fill="#CCCCCC"/>
<path id="Vector_126" d="M208.004 134.027H207.513C207.364 134.027 207.244 134.182 207.244 134.373C207.244 134.563 207.364 134.718 207.513 134.718H208.004C208.152 134.718 208.273 134.563 208.273 134.373C208.273 134.182 208.152 134.027 208.004 134.027Z" fill="#CCCCCC"/>
<path id="Vector_127" d="M212.369 133.97H209.32C209.171 133.97 209.05 134.124 209.05 134.315C209.05 134.506 209.171 134.66 209.32 134.66H212.369C212.518 134.66 212.638 134.506 212.638 134.315C212.638 134.124 212.518 133.97 212.369 133.97Z" fill="#CCCCCC"/>
<path id="Vector_128" d="M207.91 135.586H207.419C207.271 135.586 207.15 135.741 207.15 135.931C207.15 136.122 207.271 136.277 207.419 136.277H207.91C208.059 136.277 208.179 136.122 208.179 135.931C208.179 135.741 208.059 135.586 207.91 135.586Z" fill="#CCCCCC"/>
<path id="Vector_129" d="M209.5 135.586H209.009C208.86 135.586 208.74 135.741 208.74 135.931C208.74 136.122 208.86 136.277 209.009 136.277H209.5C209.649 136.277 209.769 136.122 209.769 135.931C209.769 135.741 209.649 135.586 209.5 135.586Z" fill="#CCCCCC"/>
<path id="Vector_130" d="M206.655 135.872C206.655 135.964 206.626 136.052 206.575 136.117C206.525 136.182 206.456 136.218 206.384 136.219H206.187C206.138 135.992 206.097 135.765 206.059 135.53H206.384C206.42 135.53 206.455 135.538 206.487 135.555C206.52 135.572 206.55 135.597 206.575 135.629C206.6 135.661 206.62 135.699 206.634 135.74C206.647 135.782 206.655 135.827 206.655 135.872Z" fill="#CCCCCC"/>
<path id="Vector_131" d="M213.865 135.528H210.816C210.667 135.528 210.547 135.683 210.547 135.874C210.547 136.064 210.667 136.219 210.816 136.219H213.865C214.014 136.219 214.134 136.064 214.134 135.874C214.134 135.683 214.014 135.528 213.865 135.528Z" fill="#CCCCCC"/>
</g>
<defs>
<clipPath id="clip0_2_2">
<rect width="256" height="256" fill="white"/>
</clipPath>
</defs>
</svg>
